<mxfile host="65bd71144e">
    <diagram id="BRKDkcF_8gv5wA4T6za8" name="UML diagram for use case 1 in README ">
        <mxGraphModel dx="1516" dy="578" grid="1" gridSize="10" guides="1" tooltips="1" connect="1" arrows="1" fold="1" page="1" pageScale="1" pageWidth="827" pageHeight="1169" background="none" math="0" shadow="0">
            <root>
                <mxCell id="0"/>
                <mxCell id="1" parent="0"/>
                <mxCell id="14" value="IS- A kind of&amp;nbsp;" style="text;html=1;align=center;verticalAlign=middle;resizable=0;points=[];autosize=1;strokeColor=none;fillColor=none;rotation=0;" parent="1" vertex="1">
                    <mxGeometry x="470" y="430" width="80" height="20" as="geometry"/>
                </mxCell>
                <mxCell id="2" value="Customer&amp;nbsp;" style="rounded=0;whiteSpace=wrap;html=1;" parent="1" vertex="1">
                    <mxGeometry x="30" y="230" width="120" height="60" as="geometry"/>
                </mxCell>
                <mxCell id="3" value="" style="endArrow=none;html=1;exitX=1;exitY=0.5;exitDx=0;exitDy=0;" parent="1" source="2" target="4" edge="1">
                    <mxGeometry width="50" height="50" relative="1" as="geometry">
                        <mxPoint x="210" y="250" as="sourcePoint"/>
                        <mxPoint x="240" y="260" as="targetPoint"/>
                        <Array as="points">
                            <mxPoint x="240" y="260"/>
                        </Array>
                    </mxGeometry>
                </mxCell>
                <mxCell id="4" value="Credit card" style="rounded=0;whiteSpace=wrap;html=1;" parent="1" vertex="1">
                    <mxGeometry x="340" y="230" width="120" height="60" as="geometry"/>
                </mxCell>
                <mxCell id="5" value="Has-A&amp;nbsp;" style="text;html=1;align=center;verticalAlign=middle;resizable=0;points=[];autosize=1;strokeColor=none;fillColor=none;" parent="1" vertex="1">
                    <mxGeometry x="205" y="240" width="50" height="20" as="geometry"/>
                </mxCell>
                <mxCell id="6" value="1" style="text;html=1;align=center;verticalAlign=middle;resizable=0;points=[];autosize=1;strokeColor=none;fillColor=none;" parent="1" vertex="1">
                    <mxGeometry x="165" y="220" width="20" height="20" as="geometry"/>
                </mxCell>
                <mxCell id="7" value="1" style="text;html=1;align=center;verticalAlign=middle;resizable=0;points=[];autosize=1;strokeColor=none;fillColor=none;" parent="1" vertex="1">
                    <mxGeometry x="320" y="240" width="20" height="20" as="geometry"/>
                </mxCell>
                <mxCell id="8" value="Product" style="rounded=0;whiteSpace=wrap;html=1;" parent="1" vertex="1">
                    <mxGeometry x="340" y="350" width="120" height="60" as="geometry"/>
                </mxCell>
                <mxCell id="10" value="Digital Product" style="rounded=0;whiteSpace=wrap;html=1;" parent="1" vertex="1">
                    <mxGeometry x="200" y="490" width="120" height="60" as="geometry"/>
                </mxCell>
                <mxCell id="11" value="Physical Product&lt;hr&gt;" style="rounded=0;whiteSpace=wrap;html=1;" parent="1" vertex="1">
                    <mxGeometry x="440" y="490" width="120" height="60" as="geometry"/>
                </mxCell>
                <mxCell id="12" value="" style="endArrow=classic;html=1;entryX=0.133;entryY=1.035;entryDx=0;entryDy=0;entryPerimeter=0;exitX=0.566;exitY=-0.032;exitDx=0;exitDy=0;exitPerimeter=0;" parent="1" source="10" target="8" edge="1">
                    <mxGeometry width="50" height="50" relative="1" as="geometry">
                        <mxPoint x="280" y="480" as="sourcePoint"/>
                        <mxPoint x="330" y="430" as="targetPoint"/>
                    </mxGeometry>
                </mxCell>
                <mxCell id="13" value="" style="endArrow=classic;html=1;entryX=0.75;entryY=1;entryDx=0;entryDy=0;exitX=0.583;exitY=-0.065;exitDx=0;exitDy=0;exitPerimeter=0;" parent="1" source="11" target="8" edge="1">
                    <mxGeometry width="50" height="50" relative="1" as="geometry">
                        <mxPoint x="420" y="470" as="sourcePoint"/>
                        <mxPoint x="470" y="420" as="targetPoint"/>
                    </mxGeometry>
                </mxCell>
                <mxCell id="15" value="IS-A kind of" style="text;html=1;align=center;verticalAlign=middle;resizable=0;points=[];autosize=1;strokeColor=none;fillColor=none;" parent="1" vertex="1">
                    <mxGeometry x="240" y="430" width="80" height="20" as="geometry"/>
                </mxCell>
                <mxCell id="16" value="IS-A Relationship means Inheritance" style="text;html=1;align=center;verticalAlign=middle;resizable=0;points=[];autosize=1;strokeColor=none;fillColor=none;" parent="1" vertex="1">
                    <mxGeometry x="20" y="610" width="210" height="20" as="geometry"/>
                </mxCell>
                <mxCell id="17" value="Shopping Cart" style="rounded=0;whiteSpace=wrap;html=1;" parent="1" vertex="1">
                    <mxGeometry x="30" y="350" width="120" height="60" as="geometry"/>
                </mxCell>
                <mxCell id="20" value="" style="endArrow=classic;html=1;entryX=0;entryY=0.5;entryDx=0;entryDy=0;exitX=1;exitY=0.5;exitDx=0;exitDy=0;startArrow=none;" parent="1" source="32" target="8" edge="1">
                    <mxGeometry width="50" height="50" relative="1" as="geometry">
                        <mxPoint x="150" y="410" as="sourcePoint"/>
                        <mxPoint x="200" y="360" as="targetPoint"/>
                    </mxGeometry>
                </mxCell>
                <mxCell id="21" value="Has-A" style="text;html=1;align=center;verticalAlign=middle;resizable=0;points=[];autosize=1;strokeColor=none;fillColor=none;" parent="1" vertex="1">
                    <mxGeometry x="185" y="360" width="50" height="20" as="geometry"/>
                </mxCell>
                <mxCell id="23" value="1" style="text;html=1;align=center;verticalAlign=middle;resizable=0;points=[];autosize=1;strokeColor=none;fillColor=none;" parent="1" vertex="1">
                    <mxGeometry x="150" y="330" width="20" height="20" as="geometry"/>
                </mxCell>
                <mxCell id="24" value="*" style="text;html=1;align=center;verticalAlign=middle;resizable=0;points=[];autosize=1;strokeColor=none;fillColor=none;fontSize=20;" parent="1" vertex="1">
                    <mxGeometry x="320" y="355" width="20" height="30" as="geometry"/>
                </mxCell>
                <mxCell id="26" value="* means 0-n" style="text;html=1;align=center;verticalAlign=middle;resizable=0;points=[];autosize=1;strokeColor=none;fillColor=none;" parent="1" vertex="1">
                    <mxGeometry x="275" y="330" width="80" height="20" as="geometry"/>
                </mxCell>
                <mxCell id="27" value="" style="html=1;whiteSpace=wrap;aspect=fixed;shape=isoRectangle;fontSize=20;fillColor=#fa6800;fontColor=#000000;strokeColor=#C73500;" parent="1" vertex="1">
                    <mxGeometry x="143.34" y="250" width="33.33" height="20" as="geometry"/>
                </mxCell>
                <mxCell id="28" value="" style="html=1;whiteSpace=wrap;aspect=fixed;shape=isoRectangle;fontSize=20;fillColor=#fa6800;fontColor=#000000;strokeColor=#C73500;" parent="1" vertex="1">
                    <mxGeometry x="30" y="170" width="33.33" height="20" as="geometry"/>
                </mxCell>
                <mxCell id="30" value="means composition&amp;nbsp;" style="text;html=1;align=center;verticalAlign=middle;resizable=0;points=[];autosize=1;strokeColor=none;fillColor=none;fontSize=13;" parent="1" vertex="1">
                    <mxGeometry x="70" y="170" width="130" height="20" as="geometry"/>
                </mxCell>
                <mxCell id="31" value="Composition is used when we know that system won't exist without one component. Example - Without customer system won't work" style="text;html=1;align=center;verticalAlign=middle;resizable=0;points=[];autosize=1;strokeColor=none;fillColor=none;fontSize=10;" parent="1" vertex="1">
                    <mxGeometry x="-5" y="190" width="600" height="20" as="geometry"/>
                </mxCell>
                <mxCell id="32" value="" style="html=1;whiteSpace=wrap;aspect=fixed;shape=isoRectangle;fontSize=20;" parent="1" vertex="1">
                    <mxGeometry x="143.34" y="370" width="33.33" height="20" as="geometry"/>
                </mxCell>
                <mxCell id="33" value="" style="endArrow=none;html=1;entryX=0;entryY=0.5;entryDx=0;entryDy=0;exitX=1;exitY=0.5;exitDx=0;exitDy=0;" parent="1" source="17" target="32" edge="1">
                    <mxGeometry width="50" height="50" relative="1" as="geometry">
                        <mxPoint x="150" y="380" as="sourcePoint"/>
                        <mxPoint x="340" y="380" as="targetPoint"/>
                    </mxGeometry>
                </mxCell>
                <mxCell id="34" value="" style="html=1;whiteSpace=wrap;aspect=fixed;shape=isoRectangle;fontSize=20;direction=south;rotation=90;" parent="1" vertex="1">
                    <mxGeometry x="26.665" y="653.335" width="20" height="33.33" as="geometry"/>
                </mxCell>
                <mxCell id="35" value="This hollow thing is called aggregation&amp;nbsp;&lt;br&gt;Things are lossely coupled here . Example - Product is independent of shopping cart. Product can occur in multiple shopping cart simultaneously" style="text;html=1;strokeColor=none;fillColor=none;align=center;verticalAlign=middle;whiteSpace=wrap;rounded=0;fontSize=10;" parent="1" vertex="1">
                    <mxGeometry x="60" y="656.66" width="540" height="30" as="geometry"/>
                </mxCell>
                <mxCell id="36" value="&lt;font style=&quot;font-size: 15px&quot;&gt;This composition and association are known as association ,&lt;br&gt;&amp;nbsp;wherein one class behaviour forms part of the behaviour of another.&lt;/font&gt;" style="text;html=1;align=center;verticalAlign=middle;resizable=0;points=[];autosize=1;strokeColor=none;fillColor=none;fontSize=10;" parent="1" vertex="1">
                    <mxGeometry x="110" y="715" width="470" height="30" as="geometry"/>
                </mxCell>
                <mxCell id="37" value="&lt;h3&gt;&lt;font style=&quot;font-size: 20px&quot;&gt;Domain model&lt;/font&gt;&lt;/h3&gt;" style="text;html=1;align=center;verticalAlign=middle;resizable=0;points=[];autosize=1;strokeColor=none;fillColor=none;" vertex="1" parent="1">
                    <mxGeometry x="255" y="115" width="150" height="50" as="geometry"/>
                </mxCell>
                <mxCell id="38" value="Conceptual classes" style="text;html=1;align=center;verticalAlign=middle;resizable=0;points=[];autosize=1;strokeColor=none;fillColor=none;fontSize=20;" vertex="1" parent="1">
                    <mxGeometry x="230" y="805" width="190" height="30" as="geometry"/>
                </mxCell>
                <mxCell id="39" value="Customer " style="swimlane;fontStyle=0;childLayout=stackLayout;horizontal=1;startSize=30;horizontalStack=0;resizeParent=1;resizeParentMax=0;resizeLast=0;collapsible=1;marginBottom=0;fontSize=20;perimeterSpacing=2;" vertex="1" parent="1">
                    <mxGeometry x="63" y="860" width="140" height="60" as="geometry"/>
                </mxCell>
                <mxCell id="40" value="name: String&#10;creditCard: CreditCard" style="text;strokeColor=none;fillColor=none;align=left;verticalAlign=middle;spacingLeft=4;spacingRight=4;overflow=hidden;points=[[0,0.5],[1,0.5]];portConstraint=eastwest;rotatable=0;fontSize=10;" vertex="1" parent="39">
                    <mxGeometry y="30" width="140" height="30" as="geometry"/>
                </mxCell>
                <mxCell id="47" value="CreditCard" style="swimlane;fontStyle=0;childLayout=stackLayout;horizontal=1;startSize=30;horizontalStack=0;resizeParent=1;resizeParentMax=0;resizeLast=0;collapsible=1;marginBottom=0;fontSize=20;strokeWidth=3;" vertex="1" parent="1">
                    <mxGeometry x="340" y="860" width="140" height="90" as="geometry"/>
                </mxCell>
                <mxCell id="48" value="number: long" style="text;strokeColor=none;fillColor=none;align=left;verticalAlign=middle;spacingLeft=4;spacingRight=4;overflow=hidden;points=[[0,0.5],[1,0.5]];portConstraint=eastwest;rotatable=0;fontSize=10;" vertex="1" parent="47">
                    <mxGeometry y="30" width="140" height="30" as="geometry"/>
                </mxCell>
                <mxCell id="51" value="" style="endArrow=none;html=1;fontSize=20;entryX=1.002;entryY=0.017;entryDx=0;entryDy=0;entryPerimeter=0;exitX=-0.012;exitY=0.017;exitDx=0;exitDy=0;exitPerimeter=0;" edge="1" parent="47">
                    <mxGeometry width="50" height="50" relative="1" as="geometry">
                        <mxPoint x="-1.6800000000000637" y="60.50999999999999" as="sourcePoint"/>
                        <mxPoint x="140.27999999999997" y="60.50999999999999" as="targetPoint"/>
                    </mxGeometry>
                </mxCell>
                <mxCell id="50" value="CreditCard(long)" style="text;strokeColor=none;fillColor=none;align=left;verticalAlign=middle;spacingLeft=4;spacingRight=4;overflow=hidden;points=[[0,0.5],[1,0.5]];portConstraint=eastwest;rotatable=0;fontSize=10;" vertex="1" parent="47">
                    <mxGeometry y="60" width="140" height="30" as="geometry"/>
                </mxCell>
                <mxCell id="54" value="Customer(String,long)" style="whiteSpace=wrap;html=1;fontSize=10;strokeWidth=3;align=left;" vertex="1" parent="1">
                    <mxGeometry x="65" y="920" width="135" height="60" as="geometry"/>
                </mxCell>
            </root>
        </mxGraphModel>
    </diagram>
</mxfile>